<svg height="512pt" viewBox="0 0 512 512" width="512pt" xmlns="http://www.w3.org/2000/svg"><path d="m512 256c0 8.601562-.429688 17.109375-1.261719 25.5-1.878906 19.03125-5.839843 37.441406-11.660156 55.011719-29.6875 89.6875-107.628906 157.410156-203.078125 172.378906-12.710938 1.988281-25.738281 3.050781-39 3.097656-.328125.011719-.671875.011719-1 .011719-141.378906 0-256-114.621094-256-256s114.621094-256 256-256 256 114.621094 256 256zm0 0" fill="#8cdefb"/><path d="m510.738281 281.5c-1.878906 19.03125-5.839843 37.441406-11.660156 55.011719-29.6875 89.6875-107.628906 157.410156-203.078125 172.378906l-80-79.699219v-22.191406l-20.5-20 121-300zm0 0" fill="#57bce3"/><path d="m216 369.0625h80v60.125h-80zm0 0" fill="#12254c"/><path d="m256 369.058594h40v60.132812h-40zm0 0" fill="#0d1c35"/><path d="m195.5 87h121v300h-121zm0 0" fill="#1b3b6b"/><path d="m256 87h60.5v300h-60.5zm0 0" fill="#12254c"/><path d="m286 327c0 16.570312-13.429688 30-30 30s-30-13.429688-30-30 13.429688-30 30-30 30 13.429688 30 30zm0 0" fill="#aef224"/><path d="m286 327c0 16.570312-13.429688 30-30 30v-60c16.570312 0 30 13.429688 30 30zm0 0" fill="#89bf1d"/><path d="m286 237c0 16.570312-13.429688 30-30 30s-30-13.429688-30-30 13.429688-30 30-30 30 13.429688 30 30zm0 0" fill="#ffe100"/><path d="m286 237c0 16.570312-13.429688 30-30 30v-60c16.570312 0 30 13.429688 30 30zm0 0" fill="#d9bf00"/><path d="m286 147c0 16.570312-13.429688 30-30 30s-30-13.429688-30-30 13.429688-30 30-30 30 13.429688 30 30zm0 0" fill="#ff2c49"/><path d="m286 147c0 16.570312-13.429688 30-30 30v-60c16.570312 0 30 13.429688 30 30zm0 0" fill="#bf0032"/></svg>